<svg width="27" height="27" viewBox="0 0 27 27" fill="none" xmlns="http://www.w3.org/2000/svg">
<g id="cash">
<path id="Vector" d="M13.5 16.875C14.3951 16.875 15.2535 16.5194 15.8865 15.8865C16.5194 15.2535 16.875 14.3951 16.875 13.5C16.875 12.6049 16.5194 11.7464 15.8865 11.1135C15.2535 10.4806 14.3951 10.125 13.5 10.125C12.6049 10.125 11.7464 10.4806 11.1135 11.1135C10.4806 11.7464 10.125 12.6049 10.125 13.5C10.125 14.3951 10.4806 15.2535 11.1135 15.8865C11.7464 16.5194 12.6049 16.875 13.5 16.875Z" fill="#9DFFB3"/>
<path id="Vector_2" d="M0 6.75C0 6.30245 0.17779 5.87322 0.494257 5.55676C0.810725 5.24029 1.23995 5.0625 1.6875 5.0625H25.3125C25.7601 5.0625 26.1893 5.24029 26.5057 5.55676C26.8222 5.87322 27 6.30245 27 6.75V20.25C27 20.6976 26.8222 21.1268 26.5057 21.4432C26.1893 21.7597 25.7601 21.9375 25.3125 21.9375H1.6875C1.23995 21.9375 0.810725 21.7597 0.494257 21.4432C0.17779 21.1268 0 20.6976 0 20.25V6.75ZM5.0625 6.75C5.0625 7.64511 4.70692 8.50355 4.07399 9.13649C3.44105 9.76942 2.58261 10.125 1.6875 10.125V16.875C2.58261 16.875 3.44105 17.2306 4.07399 17.8635C4.70692 18.4965 5.0625 19.3549 5.0625 20.25H21.9375C21.9375 19.3549 22.2931 18.4965 22.926 17.8635C23.559 17.2306 24.4174 16.875 25.3125 16.875V10.125C24.4174 10.125 23.559 9.76942 22.926 9.13649C22.2931 8.50355 21.9375 7.64511 21.9375 6.75H5.0625Z" fill="#9DFFB3"/>
</g>
</svg>
