<svg width="64" height="64" viewBox="0 0 64 64" fill="none" xmlns="http://www.w3.org/2000/svg">
<g id="bug-fill">
<path id="Vector" fill-rule="evenodd" clip-rule="evenodd" d="M19.912 3.41986C19.8451 3.15816 19.7259 2.91272 19.5616 2.69835C19.3973 2.48397 19.1913 2.3051 18.9559 2.17253C18.7206 2.03995 18.4608 1.95642 18.1924 1.92696C17.9239 1.89751 17.6522 1.92275 17.3937 2.00116C17.1352 2.07957 16.8953 2.20952 16.6884 2.38318C16.4815 2.55683 16.312 2.7706 16.19 3.01157C16.0679 3.25255 15.996 3.51574 15.9785 3.78528C15.961 4.05482 15.9982 4.32511 16.088 4.57986L17.728 9.98786C14.0511 13.724 11.9933 18.7578 12 23.9999H52C52.0067 18.7578 49.9489 13.724 46.272 9.98786L47.912 4.57986C48.0018 4.32511 48.039 4.05482 48.0215 3.78528C48.004 3.51574 47.9321 3.25255 47.81 3.01157C47.688 2.7706 47.5185 2.55683 47.3116 2.38318C47.1047 2.20952 46.8648 2.07957 46.6063 2.00116C46.3478 1.92275 46.0761 1.89751 45.8076 1.92696C45.5392 1.95642 45.2794 2.03995 45.0441 2.17253C44.8087 2.3051 44.6027 2.48397 44.4384 2.69835C44.2741 2.91272 44.1549 3.15816 44.088 3.41986L42.924 7.24386C39.6764 5.12141 35.8796 3.9939 32 3.99986C28.1204 3.99413 24.3237 5.12162 21.076 7.24386L19.916 3.41986H19.912ZM52 23.9999V27.9999H34V63.8999C38.9333 63.404 43.5065 61.0935 46.8325 57.4164C50.1585 53.7394 52.0001 48.958 52 43.9999H54C54.5304 43.9999 55.0391 44.2106 55.4142 44.5856C55.7893 44.9607 56 45.4694 56 45.9999V47.9999C56 48.5303 56.2107 49.039 56.5858 49.4141C56.9609 49.7891 57.4696 49.9999 58 49.9999C58.5304 49.9999 59.0391 49.7891 59.4142 49.4141C59.7893 49.039 60 48.5303 60 47.9999V45.9999C60 44.4086 59.3679 42.8824 58.2426 41.7572C57.1174 40.632 55.5913 39.9999 54 39.9999H52V35.9999H58C58.5304 35.9999 59.0391 35.7891 59.4142 35.4141C59.7893 35.039 60 34.5303 60 33.9999C60 33.4694 59.7893 32.9607 59.4142 32.5856C59.0391 32.2106 58.5304 31.9999 58 31.9999H52V27.9999H54C55.5913 27.9999 57.1174 27.3677 58.2426 26.2425C59.3679 25.1173 60 23.5912 60 21.9999V19.9999C60 19.4694 59.7893 18.9607 59.4142 18.5856C59.0391 18.2106 58.5304 17.9999 58 17.9999C57.4696 17.9999 56.9609 18.2106 56.5858 18.5856C56.2107 18.9607 56 19.4694 56 19.9999V21.9999C56 22.5303 55.7893 23.039 55.4142 23.4141C55.0391 23.7891 54.5304 23.9999 54 23.9999H52ZM30 63.8999V27.9999H12V23.9999H10C9.46957 23.9999 8.96086 23.7891 8.58579 23.4141C8.21071 23.039 8 22.5303 8 21.9999V19.9999C8 19.4694 7.78929 18.9607 7.41421 18.5856C7.03914 18.2106 6.53043 17.9999 6 17.9999C5.46957 17.9999 4.96086 18.2106 4.58579 18.5856C4.21071 18.9607 4 19.4694 4 19.9999V21.9999C4 23.5912 4.63214 25.1173 5.75736 26.2425C6.88258 27.3677 8.4087 27.9999 10 27.9999H12V31.9999H6C5.46957 31.9999 4.96086 32.2106 4.58579 32.5856C4.21071 32.9607 4 33.4694 4 33.9999C4 34.5303 4.21071 35.039 4.58579 35.4141C4.96086 35.7891 5.46957 35.9999 6 35.9999H12V39.9999H10C8.4087 39.9999 6.88258 40.632 5.75736 41.7572C4.63214 42.8824 4 44.4086 4 45.9999V47.9999C4 48.5303 4.21071 49.039 4.58579 49.4141C4.96086 49.7891 5.46957 49.9999 6 49.9999C6.53043 49.9999 7.03914 49.7891 7.41421 49.4141C7.78929 49.039 8 48.5303 8 47.9999V45.9999C8 45.4694 8.21071 44.9607 8.58579 44.5856C8.96086 44.2106 9.46957 43.9999 10 43.9999H12C11.9999 48.958 13.8415 53.7394 17.1675 57.4164C20.4935 61.0935 25.0667 63.404 30 63.8999Z" fill="#FE666D"/>
</g>
</svg>
