<svg width="24" height="24" viewBox="0 0 24 24" fill="none" xmlns="http://www.w3.org/2000/svg">
<g id="chevron-right">
<g id="Vector">
<mask id="path-2-inside-1_355_788" fill="white">
<path fill-rule="evenodd" clip-rule="evenodd" d="M6.96839 2.46888C7.03806 2.39903 7.12082 2.34362 7.21194 2.30581C7.30305 2.268 7.40074 2.24854 7.49939 2.24854C7.59804 2.24854 7.69572 2.268 7.78684 2.30581C7.87796 2.34362 7.96072 2.39903 8.03039 2.46888L17.0304 11.4689C17.1002 11.5385 17.1556 11.6213 17.1935 11.7124C17.2313 11.8035 17.2507 11.9012 17.2507 11.9999C17.2507 12.0985 17.2313 12.1962 17.1935 12.2873C17.1556 12.3784 17.1002 12.4612 17.0304 12.5309L8.03039 21.5309C7.88956 21.6717 7.69855 21.7508 7.49939 21.7508C7.30022 21.7508 7.10922 21.6717 6.96839 21.5309C6.82756 21.39 6.74844 21.199 6.74844 20.9999C6.74844 20.8007 6.82756 20.6097 6.96839 20.4689L15.4389 11.9999L6.96839 3.53088C6.89854 3.46121 6.84313 3.37844 6.80532 3.28733C6.76751 3.19621 6.74805 3.09853 6.74805 2.99988C6.74805 2.90122 6.76751 2.80354 6.80532 2.71243C6.84313 2.62131 6.89854 2.53854 6.96839 2.46888Z"/>
</mask>
<path fill-rule="evenodd" clip-rule="evenodd" d="M6.96839 2.46888C7.03806 2.39903 7.12082 2.34362 7.21194 2.30581C7.30305 2.268 7.40074 2.24854 7.49939 2.24854C7.59804 2.24854 7.69572 2.268 7.78684 2.30581C7.87796 2.34362 7.96072 2.39903 8.03039 2.46888L17.0304 11.4689C17.1002 11.5385 17.1556 11.6213 17.1935 11.7124C17.2313 11.8035 17.2507 11.9012 17.2507 11.9999C17.2507 12.0985 17.2313 12.1962 17.1935 12.2873C17.1556 12.3784 17.1002 12.4612 17.0304 12.5309L8.03039 21.5309C7.88956 21.6717 7.69855 21.7508 7.49939 21.7508C7.30022 21.7508 7.10922 21.6717 6.96839 21.5309C6.82756 21.39 6.74844 21.199 6.74844 20.9999C6.74844 20.8007 6.82756 20.6097 6.96839 20.4689L15.4389 11.9999L6.96839 3.53088C6.89854 3.46121 6.84313 3.37844 6.80532 3.28733C6.76751 3.19621 6.74805 3.09853 6.74805 2.99988C6.74805 2.90122 6.76751 2.80354 6.80532 2.71243C6.84313 2.62131 6.89854 2.53854 6.96839 2.46888Z" fill="black"/>
<path d="M8.03039 2.46888L-42.9456 53.3162L-42.9135 53.3484L-42.8813 53.3806L8.03039 2.46888ZM17.0304 11.4689L-33.8813 62.3806L-33.8491 62.4127L-33.8169 62.4449L17.0304 11.4689ZM17.0304 12.5309L-33.8169 -38.4451L-33.8491 -38.413L-33.8813 -38.3808L17.0304 12.5309ZM6.96839 20.4689L-43.9388 -30.4473L-43.9433 -30.4428L6.96839 20.4689ZM15.4389 11.9999L66.3461 62.9161L117.271 11.9999L66.3461 -38.9163L15.4389 11.9999ZM6.96839 3.53088L57.8756 -47.3853L57.8456 -47.4152L57.8157 -47.4451L6.96839 3.53088ZM57.9444 53.3162C51.3259 59.9514 43.4634 65.2158 34.8072 68.8077L-20.3833 -64.1961C-29.2217 -60.5286 -37.2498 -55.1534 -44.0076 -48.3784L57.9444 53.3162ZM34.8072 68.8077C26.151 72.3996 16.8713 74.2485 7.49939 74.2485V-69.7515C-2.06978 -69.7515 -11.5449 -67.8636 -20.3833 -64.1961L34.8072 68.8077ZM7.49939 74.2485C-1.87248 74.2485 -11.1522 72.3996 -19.8084 68.8077L35.3821 -64.1961C26.5437 -67.8636 17.0686 -69.7515 7.49939 -69.7515V74.2485ZM-19.8084 68.8077C-28.4646 65.2158 -36.3271 59.9514 -42.9456 53.3162L59.0064 -48.3784C52.2485 -55.1534 44.2205 -60.5286 35.3821 -64.1961L-19.8084 68.8077ZM-42.8813 53.3806L-33.8813 62.3806L67.9421 -39.4428L58.9421 -48.4428L-42.8813 53.3806ZM-33.8169 62.4449C-40.4525 55.8261 -45.7167 47.9635 -49.3084 39.3077L83.6954 -15.8828C80.028 -24.7209 74.6529 -32.749 67.8777 -39.5071L-33.8169 62.4449ZM-49.3084 39.3077C-52.9003 30.6516 -54.7493 21.3718 -54.7493 11.9999H89.2507C89.2507 2.43064 87.3629 -7.04449 83.6954 -15.8828L-49.3084 39.3077ZM-54.7493 11.9999C-54.7493 2.62794 -52.9003 -6.65182 -49.3084 -15.3079L83.6954 39.8826C87.3629 31.0442 89.2507 21.5691 89.2507 11.9999H-54.7493ZM-49.3084 -15.3079C-45.7167 -23.9637 -40.4525 -31.8263 -33.8169 -38.4451L67.8777 63.5069C74.6529 56.7487 80.028 48.7206 83.6954 39.8826L-49.3084 -15.3079ZM-33.8813 -38.3808L-42.8813 -29.3808L58.9421 72.4426L67.9421 63.4426L-33.8813 -38.3808ZM-42.8813 -29.3808C-29.5194 -42.7427 -11.3969 -50.2492 7.49939 -50.2492V93.7508C26.794 93.7508 45.2985 86.0861 58.9421 72.4426L-42.8813 -29.3808ZM7.49939 -50.2492C26.3957 -50.2492 44.5182 -42.7427 57.8801 -29.3808L-43.9433 72.4426C-30.2997 86.0861 -11.7952 93.7508 7.49939 93.7508V-50.2492ZM57.8801 -29.3808C71.2418 -16.019 78.7484 2.10342 78.7484 20.9999H-65.2516C-65.2516 40.2947 -57.5867 58.7991 -43.9433 72.4426L57.8801 -29.3808ZM78.7484 20.9999C78.7484 39.8963 71.2418 58.0188 57.8801 71.3806L-43.9433 -30.4428C-57.5867 -16.7994 -65.2516 1.70509 -65.2516 20.9999H78.7484ZM57.8756 71.3851L66.3461 62.9161L-35.4683 -38.9163L-43.9388 -30.4473L57.8756 71.3851ZM66.3461 -38.9163L57.8756 -47.3853L-43.9388 54.4471L-35.4683 62.9161L66.3461 -38.9163ZM57.8157 -47.4451C64.4509 -40.8267 69.7153 -32.9642 73.3072 -24.3079L-59.6966 30.8826C-56.029 39.7211 -50.6538 47.7491 -43.8789 54.5069L57.8157 -47.4451ZM73.3072 -24.3079C76.8993 -15.6514 78.748 -6.37164 78.748 2.99988H-65.252C-65.252 12.5687 -63.3642 22.0439 -59.6966 30.8826L73.3072 -24.3079ZM78.748 2.99988C78.748 12.3714 76.8993 21.6512 73.3072 30.3077L-59.6966 -24.8828C-63.3642 -16.0441 -65.252 -6.56896 -65.252 2.99988H78.748ZM73.3072 30.3077C69.7153 38.9639 64.4509 46.8264 57.8157 53.4449L-43.8789 -48.5071C-50.6538 -41.7493 -56.029 -33.7213 -59.6966 -24.8828L73.3072 30.3077Z" fill="black" mask="url(#path-2-inside-1_355_788)"/>
</g>
</g>
</svg>
